<svg id="Layer_1" data-name="Layer 1" xmlns="http://www.w3.org/2000/svg" viewBox="0 0 128 128"><title>WIGHT CAP</title><path d="M37.58,46.749a9.548,9.548,0,0,1-9.5,9.571,9.747,9.747,0,0,1-1.325-.085c.04-.085.076-.173.117-.257.116-.24.238-.474.356-.711q.4-.8.825-1.584.21-.387.426-.767.441-.777.906-1.528c.13-.211.256-.425.389-.633.443-.695.9-1.377,1.37-2.039.047-.065.1-.127.143-.192q.645-.894,1.327-1.745c.158-.2.322-.391.483-.586q.541-.653,1.1-1.282c.179-.2.358-.4.54-.595q.608-.655,1.243-1.279c.146-.145.289-.295.437-.437.044-.042.091-.081.135-.122A9.557,9.557,0,0,1,37.58,46.749ZM92.172,98.686a6.451,6.451,0,0,1-6.421,6.466l-67.548.237A6.442,6.442,0,0,1,18.121,92.5c.012,0,.023,0,.034,0l67.55-.237c.011,0,.021,0,.032,0A6.45,6.45,0,0,1,92.172,98.686ZM83.953,41.57c-.162.272-.319.549-.474.828q-.358.645-.687,1.314c-.14.284-.281.567-.414.857-.219.478-.423.968-.623,1.462-.11.272-.225.539-.329.816-.23.615-.44,1.247-.641,1.887-.053.169-.115.331-.165.5q-.364,1.223-.655,2.5c-.054.239-.1.487-.147.729-.131.624-.256,1.252-.362,1.9-.055.333-.1.675-.147,1.014-.081.571-.157,1.146-.219,1.731-.039.372-.072.749-.1,1.127-.024.286-.059.563-.078.852a10.559,10.559,0,0,1-1.393.1,10.311,10.311,0,1,1,6.719-18.107C84.136,41.237,84.049,41.408,83.953,41.57Zm2.608-3.736a14.3,14.3,0,1,0-9.031,25.35c.425,0,.845-.028,1.262-.065a89.121,89.121,0,0,0,4.19,25.156l-62.824.22C20.306,77.661,21.994,68.1,25.146,60a13.518,13.518,0,0,0,14.5-20.169c12.565-9.836,30.746-12.381,52.976-7.406A26.211,26.211,0,0,0,86.561,37.834Zm25.893-5.627a3,3,0,0,0-1.24,2.505l.123,5.009a.549.549,0,0,1-.871.457l-4.283-3.119a2.456,2.456,0,0,0-2.261-.331l-5,1.761a.549.549,0,0,1-.7-.687l1.554-4.762a3,3,0,0,0-.47-2.757L96.259,26.3a.549.549,0,0,1,.436-.882l5.3.005h.2a2.1,2.1,0,0,0,1.722-.908L107.027,20a.549.549,0,0,1,.973.143l1.542,4.766a3,3,0,0,0,2,1.953l4.8,1.432a.549.549,0,0,1,.165.97ZM52.832,61.336a9.385,9.385,0,1,0,9.419,9.352A9.4,9.4,0,0,0,52.832,61.336Zm.052,14.77a5.385,5.385,0,1,1,5.367-5.4A5.392,5.392,0,0,1,52.884,76.107Z"/></svg>