<svg xmlns="http://www.w3.org/2000/svg" viewBox="0 0 55.45 64"><title>pin map</title><g id="Layer_2" data-name="Layer 2"><g id="pin_map" data-name="pin map"><path d="M51.42,40.76a1,1,0,0,0-1-.82H39.37c4.61-5.7,9.08-12.84,9.08-19.33a20.61,20.61,0,0,0-41.22,0c0,6.22,4.62,13.25,9.6,19.33H5a1,1,0,0,0-1,.82L0,62.82A1,1,0,0,0,1,64H54.45a1,1,0,0,0,1-1.18ZM27.84,2A18.63,18.63,0,0,1,46.45,20.61c0,9.57-10.94,21.11-15.95,26.12l0,0-1.11,1.1-.81.8c-.67.47-.83.52-1.26.14-.54-.62-1.17-1.31-1.84-2v0l-.53-.59C19.05,39.68,9.23,28.88,9.23,20.61A18.63,18.63,0,0,1,27.84,2ZM24.3,48.44c.55.61,1.08,1.19,1.54,1.71l.08.08a2.72,2.72,0,0,0,1.85.81,3.6,3.6,0,0,0,2-.81l.14-.12.86-.85.84-.83H42.46l1.13,6.8H12.24l1.13-6.8ZM2.2,62,5.85,41.94H18.51c1.36,1.59,2.72,3.1,4,4.5h-10a1,1,0,0,0-1,.84l-1.47,8.8a1,1,0,0,0,1,1.16H44.78a1,1,0,0,0,1-1.16l-1.47-8.8a1,1,0,0,0-1-.84H33.59c1.24-1.28,2.66-2.8,4.12-4.5H49.6L53.25,62Z"/><path d="M41.07,20A12.86,12.86,0,1,0,28.21,32.88,12.87,12.87,0,0,0,41.07,20ZM17.35,20A10.86,10.86,0,1,1,28.21,30.88,10.87,10.87,0,0,1,17.35,20Z"/></g></g></svg>